<svg xmlns="http://www.w3.org/2000/svg" xmlns:xlink="http://www.w3.org/1999/xlink" width="456" zoomAndPan="magnify" viewBox="0 0 342 69.749997" height="93" preserveAspectRatio="xMidYMid meet" version="1.0"><defs><g/><clipPath id="5d2bdf1a81"><path d="M 2 0 L 341.386719 0 L 341.386719 69.5 L 2 69.5 Z M 2 0 " clip-rule="nonzero"/></clipPath><clipPath id="654ba94e18"><rect x="0" width="340" y="0" height="70"/></clipPath></defs><g clip-path="url(#5d2bdf1a81)"><g transform="matrix(1, 0, 0, 1, 2, 0.000000000000000149)"><g clip-path="url(#654ba94e18)"><g fill="#000000" fill-opacity="1"><g transform="translate(0.839528, 54.142705)"><g><path d="M 47.203125 0 L 36.96875 0 L 33.28125 -11.34375 L 14.4375 -11.34375 L 10.734375 0 L 0.734375 0 L 17.734375 -49.1875 L 30.21875 -49.1875 Z M 23.390625 -38.921875 L 17.0625 -19.515625 L 30.578125 -19.515625 L 24.21875 -38.921875 Z M 23.390625 -38.921875 "/></g></g></g><g fill="#000000" fill-opacity="1"><g transform="translate(48.76832, 54.142705)"><g><path d="M 47.203125 0 L 36.96875 0 L 33.28125 -11.34375 L 14.4375 -11.34375 L 10.734375 0 L 0.734375 0 L 17.734375 -49.1875 L 30.21875 -49.1875 Z M 23.390625 -38.921875 L 17.0625 -19.515625 L 30.578125 -19.515625 L 24.21875 -38.921875 Z M 23.390625 -38.921875 "/></g></g></g><g fill="#000000" fill-opacity="1"><g transform="translate(93.736213, 54.142705)"><g><path d="M 29.234375 0 L 17.5 0 L 0.875 -49.1875 L 11.203125 -49.1875 L 23.140625 -12.515625 L 23.984375 -12.515625 L 35.765625 -49.1875 L 45.828125 -49.1875 Z M 29.234375 0 "/></g></g></g><g fill="#000000" fill-opacity="1"><g transform="translate(137.45964, 54.142705)"><g><path d="M 47.203125 0 L 36.96875 0 L 33.28125 -11.34375 L 14.4375 -11.34375 L 10.734375 0 L 0.734375 0 L 17.734375 -49.1875 L 30.21875 -49.1875 Z M 23.390625 -38.921875 L 17.0625 -19.515625 L 30.578125 -19.515625 L 24.21875 -38.921875 Z M 23.390625 -38.921875 "/></g></g></g><g fill="#000000" fill-opacity="1"><g transform="translate(185.388431, 54.142705)"><g><path d="M 38.15625 -30.6875 L 38.15625 -49.1875 L 47.84375 -49.1875 L 47.84375 0 L 38.15625 0 L 38.15625 -22.40625 L 16.109375 -22.40625 L 16.109375 0 L 6.390625 0 L 6.390625 -49.1875 L 16.109375 -49.1875 L 16.109375 -30.6875 Z M 38.15625 -30.6875 "/></g></g></g><g fill="#000000" fill-opacity="1"><g transform="translate(239.64046, 54.142705)"><g><path d="M 47.203125 0 L 36.96875 0 L 33.28125 -11.34375 L 14.4375 -11.34375 L 10.734375 0 L 0.734375 0 L 17.734375 -49.1875 L 30.21875 -49.1875 Z M 23.390625 -38.921875 L 17.0625 -19.515625 L 30.578125 -19.515625 L 24.21875 -38.921875 Z M 23.390625 -38.921875 "/></g></g></g><g fill="#000000" fill-opacity="1"><g transform="translate(287.569251, 54.142705)"><g><path d="M 15.8125 0 L 6.390625 0 L 6.390625 -49.1875 L 17.53125 -49.1875 L 37.28125 -17.5 L 38.15625 -17.625 L 38.15625 -49.1875 L 47.5 -49.1875 L 47.5 0 L 37.546875 0 L 16.65625 -33.84375 L 15.8125 -33.71875 Z M 15.8125 0 "/></g></g></g></g></g></g></svg>